<svg width="100%" height="100%" overflow="visible" style="display: block;" viewBox="0 0 9.5 9.5" fill="none" xmlns="http://www.w3.org/2000/svg">
<path id="Union" d="M4.75 0C7.37335 0 9.5 2.12665 9.5 4.75C9.5 7.37335 7.37335 9.5 4.75 9.5C2.12665 9.5 0 7.37335 0 4.75C0 2.12665 2.12665 0 4.75 0ZM6.76562 2.73438C6.61918 2.58793 6.38082 2.58794 6.23438 2.73438L4.75 4.21973L3.26562 2.73438C3.11918 2.58794 2.88082 2.58794 2.73438 2.73438C2.58793 2.88082 2.58794 3.11918 2.73438 3.26562L4.21973 4.75L2.73438 6.23438C2.58794 6.38082 2.58793 6.61918 2.73438 6.76562C2.88082 6.91206 3.11918 6.91206 3.26562 6.76562L4.75 5.28027L6.23438 6.76562C6.38082 6.91207 6.61918 6.91207 6.76562 6.76562C6.91207 6.61918 6.91207 6.38082 6.76562 6.23438L5.28027 4.75L6.76562 3.26562C6.91206 3.11918 6.91206 2.88082 6.76562 2.73438Z" fill="var(--fill-0, #7A7D82)"/>
</svg>
