<svg width="100%" height="100%" overflow="visible" style="display: block;" viewBox="0 0 20 20" fill="none" xmlns="http://www.w3.org/2000/svg">
<g id="gift">
<path id="Union" d="M12.5026 2.00002C13.8833 2.00002 15.0025 3.11936 15.0026 4.50002C15.0026 5.06346 14.8142 5.58195 14.4997 6.00002H17.4049C18.2885 6.00002 19.0053 6.71618 19.0055 7.59963V9.20022H17.0046V16.4004C17.0044 17.2839 16.2885 18 15.4049 18H4.60514C3.72177 17.9998 3.00475 17.2838 3.00456 16.4004V9.20022H1.00553V7.59963C1.00578 6.7162 1.72167 6.00006 2.60514 6.00002H5.50553C5.19104 5.58195 5.0026 5.06346 5.0026 4.50002C5.00267 3.11936 6.12193 2.00002 7.5026 2.00002C8.88328 2.00002 10.0025 3.11936 10.0026 4.50002C10.0027 3.11936 11.1219 2.00002 12.5026 2.00002ZM9.00749 16H11.0075V10H9.00749V16Z" fill="currentColor"/>
</g>
</svg>
