<svg width="100%" height="100%" overflow="visible" style="display: block;" viewBox="0 0 10.2725 13.3329" fill="none" xmlns="http://www.w3.org/2000/svg">
<path id="hot" d="M3.50293 0.124843C3.49875 0.0310334 3.59991 -0.031302 3.67871 0.0164447L4.28125 0.378749C5.10694 0.87627 5.76753 1.59005 6.24316 2.50473C6.81817 3.60592 7.08129 4.61825 7.02734 5.51547C7.02579 5.54233 7.03624 5.56901 7.05664 5.58676C7.07339 5.60297 7.09606 5.61133 7.11914 5.60922C7.1419 5.60723 7.16311 5.59618 7.17871 5.57894C7.48653 5.22866 7.70397 4.87291 7.82227 4.52426L8.01172 3.96859C8.03939 3.88823 8.13842 3.86269 8.20117 3.91879L8.62598 4.31723C9.14391 4.80309 9.55155 5.38136 9.83594 6.03402C10.1263 6.70013 10.2724 7.4064 10.2725 8.13363C10.2725 8.83667 10.1366 9.51792 9.86816 10.16C9.61009 10.7785 9.23928 11.3363 8.7666 11.8133C8.29535 12.2916 7.74519 12.6657 7.13379 12.9266C6.50053 13.1963 5.82871 13.3329 5.13574 13.3329C4.44278 13.3328 3.7718 13.1957 3.13867 12.9246C2.52728 12.6638 1.97853 12.2883 1.50586 11.8114C1.03452 11.3347 0.664002 10.7774 0.404297 10.159C0.13585 9.5167 4.46015e-05 8.8359 0 8.13266C0 7.33691 0.182603 6.54237 0.52832 5.83285C0.871216 5.13096 1.37792 4.5036 1.99219 4.0223C2.24594 3.82261 2.47741 3.59106 2.68457 3.3348C2.97912 2.96844 3.20955 2.56028 3.37012 2.12094C3.50146 1.76184 3.55698 1.32931 3.53516 0.840663L3.50293 0.124843Z" fill="url(#paint0_linear_0_56)"/>
<defs>
<linearGradient id="paint0_linear_0_56" x1="5.13623" y1="-0.000156817" x2="5.13623" y2="13.3327" gradientUnits="userSpaceOnUse">
<stop stop-color="#FFC989"/>
<stop offset="1" stop-color="#F68F15"/>
</linearGradient>
</defs>
</svg>
