<svg width="100%" height="100%" overflow="visible" style="display: block;" viewBox="0 0 20 19" fill="none" xmlns="http://www.w3.org/2000/svg">
<path id="Vector" d="M10 2C5.58172 2 2 5.58172 2 10H5C6.10457 10 7 10.8954 7 12V17C7 18.1046 6.10457 19 5 19H2C0.89543 19 0 18.1046 0 17V10C0 4.47715 4.47715 0 10 0C15.5228 0 20 4.47715 20 10V17C20 18.1046 19.1046 19 18 19H15C13.8954 19 13 18.1046 13 17V12C13 10.8954 13.8954 10 15 10H18C18 5.58172 14.4183 2 10 2ZM2 12V17H5V12H2ZM15 12V17H18V12H15Z" fill="currentColor"/>
</svg>
