<svg width="100%" height="100%" overflow="visible" style="display: block;" viewBox="0 0 24 24" fill="none" xmlns="http://www.w3.org/2000/svg">
<g id="ICON">
<path id="Subtract" d="M22 13.6719C21.9999 14.2022 21.7891 14.7109 21.4141 15.0859L17.0859 19.4141C16.7109 19.7891 16.2022 19.9999 15.6719 20L3.5 20C2.67157 20 2 19.3284 2 18.5L2 5.5C2 4.67157 2.67157 4 3.5 4L20.5 4C21.3284 4 22 4.67157 22 5.5L22 13.6719ZM6 8L6 16L7.5 16L7.5 8L6 8ZM16.5312 13.2373C17.2144 12.5539 17.2144 11.4461 16.5312 10.7627L14.7637 8.99512C14.0803 8.3117 12.9715 8.3117 12.2881 8.99512L10.5205 10.7627C9.83723 11.4461 9.83723 12.5539 10.5205 13.2373L12.2881 15.0049C12.9715 15.6883 14.0803 15.6883 14.7637 15.0049L16.5312 13.2373ZM15.4707 11.8232C15.5681 11.9208 15.5681 12.0792 15.4707 12.1768L13.7021 13.9443C13.6045 14.0419 13.4462 14.0419 13.3486 13.9443L11.5811 12.1768C11.4836 12.0792 11.4836 11.9208 11.5811 11.8232L13.3486 10.0557C13.4462 9.95807 13.6045 9.95814 13.7021 10.0557L15.4707 11.8232Z" fill="currentColor"/>
</g>
</svg>
