<svg width="100%" height="100%" overflow="visible" style="display: block;" viewBox="0 0 16.4851 20" fill="none" xmlns="http://www.w3.org/2000/svg">
<g id="Group">
<path id="Vector" d="M4.1434 0H0.560946C0.251055 0 0 0.251146 0 0.561151V5.32122C0 5.63122 0.251055 5.88237 0.560946 5.88237H4.70435V0.561151C4.70435 0.251146 4.45329 0 4.1434 0Z" fill="currentColor"/>
<path id="Vector_2" d="M4.70437 5.88232V10.0272C4.70437 10.3372 4.95543 10.5884 5.26532 10.5884H9.42871C10.7277 10.5884 11.7807 11.6418 11.7807 12.9413C11.7807 14.2407 10.7277 15.2942 9.42871 15.2942H5.88025C5.23076 15.2942 4.70437 14.7676 4.70409 14.1179V11.1492C4.70409 10.8392 4.45303 10.5881 4.14314 10.5881H0.560974C0.251082 10.5881 2.78473e-05 10.8392 2.78473e-05 11.1492V14.7327C2.78473e-05 15.0427 0.251082 15.2939 0.560974 15.2939H3.52822C4.1777 15.2939 4.70437 15.8207 4.70437 16.4705V19.4388C4.70437 19.7488 4.95543 19.9999 5.26532 19.9999H9.14824C13.2002 19.9999 16.4851 16.7139 16.4851 12.6604C16.4851 8.91693 13.4513 5.88203 9.70919 5.88203H4.70437V5.88232Z" fill="currentColor"/>
</g>
</svg>
