<svg width="100%" height="100%" overflow="visible" style="display: block;" viewBox="0 0 24 24" fill="none" xmlns="http://www.w3.org/2000/svg">
<g id="ICON">
<path id="L" d="M20.4528 9.73526C20.7513 10.044 20.5325 10.5598 20.1031 10.5598H3.24404C2.97539 10.5598 2.7576 10.342 2.7576 10.0734V8.08866C2.7576 7.82 2.97539 7.60221 3.24404 7.60221H13.181C13.4496 7.60221 13.6674 7.38443 13.6674 7.11577V3.91988C13.6674 3.48253 14.1996 3.26734 14.5036 3.58176L20.4528 9.73526Z" fill="currentColor"/>
<path id="R" d="M3.54479 14.2846C3.2463 13.9759 3.46508 13.46 3.89451 13.46H20.7536C21.0222 13.46 21.24 13.6778 21.24 13.9465V15.9312C21.24 16.1999 21.0222 16.4176 20.7536 16.4176H10.8166C10.548 16.4176 10.3302 16.6354 10.3302 16.9041V20.1C10.3302 20.5373 9.79803 20.7525 9.49404 20.4381L3.54479 14.2846Z" fill="currentColor"/>
</g>
</svg>
