<svg width="100%" height="100%" overflow="visible" style="display: block;" viewBox="0 0 24 24" fill="none" xmlns="http://www.w3.org/2000/svg">
<g id="ICON">
<path id="Subtract" d="M20.0039 3.00293C21.1085 3.00294 22.0039 3.89837 22.0039 5.00293V19.0029C22.0038 20.1074 21.1084 21.0029 20.0039 21.0029H4.00391C2.89939 21.0029 2.00399 20.1074 2.00391 19.0029V5.00293C2.0039 3.89836 2.89934 3.00293 4.00391 3.00293H20.0039ZM13.5508 8.76172C13.3798 8.76874 13.2962 8.97369 13.4131 9.09863L14.3555 10.1055C14.4292 10.1842 14.4269 10.3075 14.3506 10.3838L12.5068 12.2275C12.4287 12.3056 12.3017 12.3056 12.2236 12.2275L9.86621 9.87012C9.67093 9.67484 9.35444 9.67482 9.15918 9.87012L5.33691 13.6924C5.14177 13.8876 5.14191 14.2041 5.33691 14.3994L6.04395 15.1064C6.23921 15.3017 6.55571 15.3017 6.75098 15.1064L9.37109 12.4863C9.44918 12.4083 9.5762 12.4083 9.6543 12.4863L12.0127 14.8447C12.2079 15.0396 12.5245 15.0397 12.7197 14.8447L18.6621 8.90137C18.7909 8.77258 18.6947 8.55315 18.5127 8.56055L13.5508 8.76172Z" fill="currentColor"/>
</g>
</svg>
