<svg width="100%" height="100%" overflow="visible" style="display: block;" viewBox="0 0 24 24" fill="none" xmlns="http://www.w3.org/2000/svg">
<g id="Referral">
<g id="Vector">
<path d="M3 4.50003C3 3.6716 3.67157 3.00003 4.5 3.00003H9.5C10.3284 3.00003 11 3.6716 11 4.50003V9.50003C11 10.3285 10.3284 11 9.5 11H4.5C3.67157 11 3 10.3285 3 9.50003V4.50003Z" fill="currentColor"/>
<path d="M3 14.5C3 13.6716 3.67157 13 4.5 13H9.5C10.3284 13 11 13.6716 11 14.5V19.5C11 20.3285 10.3284 21 9.5 21H4.5C3.67157 21 3 20.3285 3 19.5V14.5Z" fill="currentColor"/>
<path d="M13 14.5C13 13.6716 13.6716 13 14.5 13H19.5C20.3284 13 21 13.6716 21 14.5V19.5C21 20.3285 20.3284 21 19.5 21H14.5C13.6716 21 13 20.3285 13 19.5V14.5Z" fill="currentColor"/>
<path d="M13.0201 7.70713C12.6295 7.31661 12.6295 6.68344 13.02 6.29292L16.2929 3.02007C16.6834 2.62954 17.3166 2.62954 17.7071 3.02007L20.98 6.29292C21.3705 6.68344 21.3705 7.31661 20.98 7.70713L17.7071 10.98C17.3166 11.3705 16.6834 11.3705 16.2929 10.98L13.0201 7.70713Z" fill="currentColor"/>
</g>
</g>
</svg>
