<svg width="100%" height="100%" overflow="visible" style="display: block;" viewBox="0 0 24 24" fill="none" xmlns="http://www.w3.org/2000/svg">
<g id="Referral">
<path id="Union" d="M14.0557 13C12.4384 14.0748 11.3721 15.9126 11.3721 18C11.3721 19.5371 11.9509 20.9384 12.9014 22H3V19C3 15.6863 5.68629 13 9 13H14.0557ZM18.3721 17H21.3721V19H18.3721V22H16.3721V19H13.3721V17H16.3721V14H18.3721V17ZM12 1.99902C14.4853 1.99902 16.5 4.01472 16.5 6.5C16.4997 8.98506 14.4851 11 12 11C9.51488 11 7.50026 8.98506 7.5 6.5C7.5 4.01472 9.51472 1.99902 12 1.99902Z" fill="currentColor"/>
</g>
</svg>
