<svg width="100%" height="100%" overflow="visible" style="display: block;" viewBox="0 0 24 24" fill="none" xmlns="http://www.w3.org/2000/svg">
<g id="Bonus">
<path id="Vector" d="M15.0049 2.75C17.214 2.75 19.0049 4.54086 19.0049 6.75C19.0049 7.47903 18.8098 8.16251 18.4691 8.75111L22 8.75V10.75H20C20 13.7348 20 16.3883 20 19.25C20 20.3545 19.1046 21.25 18 21.25H6C4.89543 21.25 4 20.3545 4 19.25C4 16.3883 4 13.7348 4 10.75H2V8.75111H5.54065C5.19992 8.16251 5.00488 7.47903 5.00488 6.75C5.00488 4.54086 6.79574 2.75 9.00488 2.75C10.2001 2.75 11.2729 3.27421 12.0058 4.10526C12.7369 3.27421 13.8097 2.75 15.0049 2.75ZM13.0049 10.75H11.0049L11 19.25H13.0104L13.0049 10.75ZM9.00488 4.75C7.90031 4.75 7.00488 5.64543 7.00488 6.75C7.00488 7.80436 7.82076 8.66816 8.85562 8.74451L9.00488 8.75H11.0049V6.75C11.0049 5.74835 10.2686 4.91869 9.30766 4.77277L9.15415 4.75548L9.00488 4.75ZM15.0049 4.75C13.9505 4.75 13.0867 5.56588 13.0104 6.60074L13.0049 6.75V8.75H15.0049C16.0592 8.75 16.923 7.93412 16.9994 6.89926L17.0049 6.75C17.0049 5.64543 16.1095 4.75 15.0049 4.75Z" fill="currentColor"/>
</g>
</svg>
